<svg xmlns="http://www.w3.org/2000/svg" width="18" height="18" viewBox="0 0 24 24" fill="none"><path d="M21.97 18.33a3.5 3.5 0 01-.35 1.51 4 4 0 01-.95 1.29 6.27 6.27 0 01-4.4 1.92c-.65 0-1.34-.11-2.05-.33a14.93 14.93 0 01-2.16-.87 22.74 22.74 0 01-7.5-5.79 17.46 17.46 0 01-1.62-2.14 14.74 14.74 0 01-.87-1.62A6.65 6.65 0 012 7.66 4.7 4.7 0 012.32 6 4 4 0 013.4 4.27a3.2 3.2 0 011.55-1A2.86 2.86 0 016 3a2.36 2.36 0 011 .22 2.13 2.13 0 01.84.67l2.49 3.5A4.61 4.61 0 0011 8.05a1.61 1.61 0 01.27.79c0 .28-.08.56-.24.83-.16.27-.39.55-.68.84l-.79.82c-.12.12-.17.27-.17.45a1 1 0 00.04.27c.04.09.07.16.09.22.16.31.43.71.82 1.2.4.48.83.97 1.29 1.46.48.5.95.95 1.42 1.36.46.4.85.69 1.17.86l.21.09c.08.03.18.05.29.05.19 0 .34-.06.46-.18l.78-.78c.31-.31.6-.54.88-.69.28-.17.55-.25.85-.25.23 0 .47.05.73.16.26.1.53.25.82.44l3.55 2.52c.32.22.55.48.69.79.13.31.21.62.21.96z" stroke="currentColor" stroke-width="1.5" stroke-miterlimit="10"></path></svg>